<svg width="1920" height="1006" viewBox="0 0 1920 1006" fill="none" xmlns="http://www.w3.org/2000/svg">
<g clip-path="url(#clip0_1404_2209)">
<g filter="url(#filter0_ddddii_1404_2209)">
<path fill-rule="evenodd" clip-rule="evenodd" d="M-30.207 638.562H263.909V639.062H-30.207V638.562Z" fill="white"/>
<path fill-rule="evenodd" clip-rule="evenodd" d="M1920.13 647.82L1757.84 485.526L1758.19 485.173L1920.49 647.466L1920.13 647.82Z" fill="white"/>
<path fill-rule="evenodd" clip-rule="evenodd" d="M1406.3 837.378H1582.93V837.878H1406.51L1214.98 1029.41L1214.63 1029.05L1406.3 837.378Z" fill="white"/>
<path fill-rule="evenodd" clip-rule="evenodd" d="M934.991 712.707L935.345 713.06L769.188 879.218V1062.54H768.688V879.01L934.991 712.707Z" fill="white"/>
<path fill-rule="evenodd" clip-rule="evenodd" d="M289.545 574.795H-19.9883V574.295H289.752L354.011 638.554H457.051V639.054H353.804L289.545 574.795Z" fill="white"/>
<path fill-rule="evenodd" clip-rule="evenodd" d="M703.379 940.516L642.097 879.234L642.45 878.88L703.879 940.309V1032.64H703.379V940.516Z" fill="white"/>
<path fill-rule="evenodd" clip-rule="evenodd" d="M483.274 398.769L482.921 399.122L357.231 273.433H261.394L179.102 191.141V150.788L-17.3237 -45.6372L-16.9702 -45.9907L179.602 150.581V190.934L261.601 272.933H357.438L483.274 398.769Z" fill="white"/>
<path fill-rule="evenodd" clip-rule="evenodd" d="M-123 151.718H52.0565V152.218H-123V151.718Z" fill="white"/>
<path fill-rule="evenodd" clip-rule="evenodd" d="M1061.71 778.942L1062.06 779.296L961.703 879.657V1018.76H961.203V879.45L1061.71 778.942Z" fill="white"/>
<path fill-rule="evenodd" clip-rule="evenodd" d="M1588.05 946.337H1588.55V1077.85H1588.05V946.337Z" fill="white"/>
<path fill-rule="evenodd" clip-rule="evenodd" d="M1642.55 946.312H1643.05V1077.85H1642.55V946.312Z" fill="white"/>
<path fill-rule="evenodd" clip-rule="evenodd" d="M1353.81 192.186V11.3115H1354.31V192.186H1353.81Z" fill="white"/>
<path fill-rule="evenodd" clip-rule="evenodd" d="M1305.81 191.924V11.3115H1306.31V191.924H1305.81Z" fill="white"/>
<path fill-rule="evenodd" clip-rule="evenodd" d="M1257.81 192.16V11.3115H1258.31V192.16H1257.81Z" fill="white"/>
<path fill-rule="evenodd" clip-rule="evenodd" d="M833.317 713.172L723.947 822.542H365.492V822.042H723.74L832.963 712.819L833.317 713.172Z" fill="white"/>
<path fill-rule="evenodd" clip-rule="evenodd" d="M1013.17 138.136V2.34668H1013.67V138.343L970.261 181.753V319.68H837.16V319.18H969.761V181.546L1013.17 138.136Z" fill="white"/>
<path fill-rule="evenodd" clip-rule="evenodd" d="M625.77 -48H626.27V75.9594L708.756 158.446L708.402 158.799L625.77 76.1665V-48Z" fill="white"/>
<path fill-rule="evenodd" clip-rule="evenodd" d="M767.695 102.46V-12.3584H768.195V102.46H767.695Z" fill="white"/>
<path fill-rule="evenodd" clip-rule="evenodd" d="M1792.85 609.919L1668.58 485.651L1668.93 485.297L1793.35 609.712V708.709L1752.6 749.455V865.109L1905.73 1018.24L1905.38 1018.59L1752.1 865.317V749.248L1792.85 708.502V609.919Z" fill="white"/>
<path fill-rule="evenodd" clip-rule="evenodd" d="M1859.09 880.173V668.517H1859.59V880.173H1859.09Z" fill="white"/>
<path fill-rule="evenodd" clip-rule="evenodd" d="M1410.72 118.702L1572.55 -43.1211L1572.19 -43.4746L1410.22 118.495V187.679L1636.82 187.679L1752.6 71.9025L1752.25 71.5489L1636.62 187.179L1410.72 187.179V118.702Z" fill="white"/>
<path fill-rule="evenodd" clip-rule="evenodd" d="M768.912 607.354H934.673V607.854H769.119L692.502 684.47H325.151L-37.2802 1046.89L-37.6338 1046.54L324.944 683.97H692.295L768.912 607.354Z" fill="white"/>
<path fill-rule="evenodd" clip-rule="evenodd" d="M71.9404 -36.4985L72.294 -36.8521L259.11 149.968H455.052L707.854 402.771H909.989L935.136 427.918L934.783 428.271L909.782 403.271H707.647L454.845 150.468H258.903L71.9404 -36.4985Z" fill="white"/>
<path fill-rule="evenodd" clip-rule="evenodd" d="M90.4511 383.889H-12.668V383.389H90.6582L211.897 504.627H325.796L396.209 575.04H457.462V575.54H396.002L325.589 505.127H211.69L90.4511 383.889Z" fill="white"/>
<path fill-rule="evenodd" clip-rule="evenodd" d="M1921.59 314.458L1921.94 314.811L1863.1 373.656L1976.54 487.095L1976.18 487.448L1862.39 373.656L1921.59 314.458Z" fill="white"/>
<path fill-rule="evenodd" clip-rule="evenodd" d="M91.0527 197.748H-15.1719V197.248H91.2598L359.575 465.564L359.222 465.917L91.0527 197.748Z" fill="white"/>
<path fill-rule="evenodd" clip-rule="evenodd" d="M265.66 691.526L180.945 776.24H125.748L-12.9404 914.93L-13.2939 914.577L125.541 775.74H180.738L265.306 691.172L265.66 691.526Z" fill="white"/>
<path d="M493.191 402.913C493.191 406.227 490.505 408.913 487.191 408.913C483.878 408.913 481.191 406.227 481.191 402.913C481.191 399.599 483.878 396.913 487.191 396.913C490.505 396.913 493.191 399.599 493.191 402.913Z" fill="white"/>
<path fill-rule="evenodd" clip-rule="evenodd" d="M487.191 408.413C490.229 408.413 492.691 405.951 492.691 402.913C492.691 399.876 490.229 397.413 487.191 397.413C484.154 397.413 481.691 399.876 481.691 402.913C481.691 405.951 484.154 408.413 487.191 408.413ZM487.191 408.913C490.505 408.913 493.191 406.227 493.191 402.913C493.191 399.599 490.505 396.913 487.191 396.913C483.878 396.913 481.191 399.599 481.191 402.913C481.191 406.227 483.878 408.913 487.191 408.913Z" fill="white"/>
<path d="M468.508 638.804C468.508 642.118 465.822 644.804 462.508 644.804C459.194 644.804 456.508 642.118 456.508 638.804C456.508 635.49 459.194 632.804 462.508 632.804C465.822 632.804 468.508 635.49 468.508 638.804Z" fill="white"/>
<path fill-rule="evenodd" clip-rule="evenodd" d="M462.508 644.304C465.545 644.304 468.008 641.842 468.008 638.804C468.008 635.767 465.545 633.304 462.508 633.304C459.47 633.304 457.008 635.767 457.008 638.804C457.008 641.842 459.47 644.304 462.508 644.304ZM462.508 644.804C465.822 644.804 468.508 642.118 468.508 638.804C468.508 635.49 465.822 632.804 462.508 632.804C459.194 632.804 456.508 635.49 456.508 638.804C456.508 642.118 459.194 644.804 462.508 644.804Z" fill="white"/>
<path d="M468.508 575.29C468.508 578.604 465.822 581.29 462.508 581.29C459.194 581.29 456.508 578.604 456.508 575.29C456.508 571.976 459.194 569.29 462.508 569.29C465.822 569.29 468.508 571.976 468.508 575.29Z" fill="white"/>
<path fill-rule="evenodd" clip-rule="evenodd" d="M462.508 580.79C465.545 580.79 468.008 578.328 468.008 575.29C468.008 572.252 465.545 569.79 462.508 569.79C459.47 569.79 457.008 572.252 457.008 575.29C457.008 578.328 459.47 580.79 462.508 580.79ZM462.508 581.29C465.822 581.29 468.508 578.604 468.508 575.29C468.508 571.976 465.822 569.29 462.508 569.29C459.194 569.29 456.508 571.976 456.508 575.29C456.508 578.604 459.194 581.29 462.508 581.29Z" fill="white"/>
<path d="M368.953 470.095C368.953 473.409 366.267 476.095 362.953 476.095C359.639 476.095 356.953 473.409 356.953 470.095C356.953 466.782 359.639 464.095 362.953 464.095C366.267 464.095 368.953 466.782 368.953 470.095Z" fill="white"/>
<path fill-rule="evenodd" clip-rule="evenodd" d="M362.953 475.595C365.991 475.595 368.453 473.133 368.453 470.095C368.453 467.058 365.991 464.595 362.953 464.595C359.916 464.595 357.453 467.058 357.453 470.095C357.453 473.133 359.916 475.595 362.953 475.595ZM362.953 476.095C366.267 476.095 368.953 473.409 368.953 470.095C368.953 466.782 366.267 464.095 362.953 464.095C359.639 464.095 356.953 466.782 356.953 470.095C356.953 473.409 359.639 476.095 362.953 476.095Z" fill="white"/>
<path d="M644.699 875.485C644.699 878.799 642.013 881.485 638.699 881.485C635.386 881.485 632.699 878.799 632.699 875.485C632.699 872.171 635.386 869.485 638.699 869.485C642.013 869.485 644.699 872.171 644.699 875.485Z" fill="white"/>
<path fill-rule="evenodd" clip-rule="evenodd" d="M638.699 880.985C641.737 880.985 644.199 878.522 644.199 875.485C644.199 872.447 641.737 869.985 638.699 869.985C635.662 869.985 633.199 872.447 633.199 875.485C633.199 878.522 635.662 880.985 638.699 880.985ZM638.699 881.485C642.013 881.485 644.699 878.799 644.699 875.485C644.699 872.171 642.013 869.485 638.699 869.485C635.386 869.485 632.699 872.171 632.699 875.485C632.699 878.799 635.386 881.485 638.699 881.485Z" fill="white"/>
<path d="M841.461 709.165C841.461 712.479 838.775 715.165 835.461 715.165C832.148 715.165 829.461 712.479 829.461 709.165C829.461 705.851 832.148 703.165 835.461 703.165C838.775 703.165 841.461 705.851 841.461 709.165Z" fill="white"/>
<path fill-rule="evenodd" clip-rule="evenodd" d="M835.461 714.665C838.499 714.665 840.961 712.203 840.961 709.165C840.961 706.127 838.499 703.665 835.461 703.665C832.424 703.665 829.961 706.127 829.961 709.165C829.961 712.203 832.424 714.665 835.461 714.665ZM835.461 715.165C838.775 715.165 841.461 712.479 841.461 709.165C841.461 705.851 838.775 703.165 835.461 703.165C832.148 703.165 829.461 705.851 829.461 709.165C829.461 712.479 832.148 715.165 835.461 715.165Z" fill="white"/>
<path d="M944.887 709.165C944.887 712.479 942.2 715.165 938.887 715.165C935.573 715.165 932.887 712.479 932.887 709.165C932.887 705.851 935.573 703.165 938.887 703.165C942.2 703.165 944.887 705.851 944.887 709.165Z" fill="white"/>
<path fill-rule="evenodd" clip-rule="evenodd" d="M938.887 714.665C941.924 714.665 944.387 712.203 944.387 709.165C944.387 706.127 941.924 703.665 938.887 703.665C935.849 703.665 933.387 706.127 933.387 709.165C933.387 712.203 935.849 714.665 938.887 714.665ZM938.887 715.165C942.2 715.165 944.887 712.479 944.887 709.165C944.887 705.851 942.2 703.165 938.887 703.165C935.573 703.165 932.887 705.851 932.887 709.165C932.887 712.479 935.573 715.165 938.887 715.165Z" fill="white"/>
<path d="M944.887 431.918C944.887 435.232 942.2 437.918 938.887 437.918C935.573 437.918 932.887 435.232 932.887 431.918C932.887 428.604 935.573 425.918 938.887 425.918C942.2 425.918 944.887 428.604 944.887 431.918Z" fill="white"/>
<path fill-rule="evenodd" clip-rule="evenodd" d="M938.887 437.418C941.924 437.418 944.387 434.956 944.387 431.918C944.387 428.88 941.924 426.418 938.887 426.418C935.849 426.418 933.387 428.88 933.387 431.918C933.387 434.956 935.849 437.418 938.887 437.418ZM938.887 437.918C942.2 437.918 944.887 435.232 944.887 431.918C944.887 428.604 942.2 425.918 938.887 425.918C935.573 425.918 932.887 428.604 932.887 431.918C932.887 435.232 935.573 437.918 938.887 437.918Z" fill="white"/>
<path d="M944.887 607.604C944.887 610.917 942.2 613.604 938.887 613.604C935.573 613.604 932.887 610.917 932.887 607.604C932.887 604.29 935.573 601.604 938.887 601.604C942.2 601.604 944.887 604.29 944.887 607.604Z" fill="white"/>
<path fill-rule="evenodd" clip-rule="evenodd" d="M938.887 613.104C941.924 613.104 944.387 610.641 944.387 607.604C944.387 604.566 941.924 602.104 938.887 602.104C935.849 602.104 933.387 604.566 933.387 607.604C933.387 610.641 935.849 613.104 938.887 613.104ZM938.887 613.604C942.2 613.604 944.887 610.917 944.887 607.604C944.887 604.29 942.2 601.604 938.887 601.604C935.573 601.604 932.887 604.29 932.887 607.604C932.887 610.917 935.573 613.604 938.887 613.604Z" fill="white"/>
<path d="M837.648 319.43C837.648 322.743 834.962 325.43 831.648 325.43C828.335 325.43 825.648 322.743 825.648 319.43C825.648 316.116 828.335 313.43 831.648 313.43C834.962 313.43 837.648 316.116 837.648 319.43Z" fill="white"/>
<path fill-rule="evenodd" clip-rule="evenodd" d="M831.648 324.93C834.686 324.93 837.148 322.467 837.148 319.43C837.148 316.392 834.686 313.93 831.648 313.93C828.611 313.93 826.148 316.392 826.148 319.43C826.148 322.467 828.611 324.93 831.648 324.93ZM831.648 325.43C834.962 325.43 837.648 322.743 837.648 319.43C837.648 316.116 834.962 313.43 831.648 313.43C828.335 313.43 825.648 316.116 825.648 319.43C825.648 322.743 828.335 325.43 831.648 325.43Z" fill="white"/>
<path d="M718.578 162.623C718.578 165.937 715.892 168.623 712.578 168.623C709.264 168.623 706.578 165.937 706.578 162.623C706.578 159.309 709.264 156.623 712.578 156.623C715.892 156.623 718.578 159.309 718.578 162.623Z" fill="white"/>
<path fill-rule="evenodd" clip-rule="evenodd" d="M712.578 168.123C715.616 168.123 718.078 165.661 718.078 162.623C718.078 159.585 715.616 157.123 712.578 157.123C709.541 157.123 707.078 159.585 707.078 162.623C707.078 165.661 709.541 168.123 712.578 168.123ZM712.578 168.623C715.892 168.623 718.578 165.937 718.578 162.623C718.578 159.309 715.892 156.623 712.578 156.623C709.264 156.623 706.578 159.309 706.578 162.623C706.578 165.937 709.264 168.623 712.578 168.623Z" fill="white"/>
<path d="M773.945 107.785C773.945 111.099 771.259 113.785 767.945 113.785C764.632 113.785 761.945 111.099 761.945 107.785C761.945 104.471 764.632 101.785 767.945 101.785C771.259 101.785 773.945 104.471 773.945 107.785Z" fill="white"/>
<path fill-rule="evenodd" clip-rule="evenodd" d="M767.945 113.285C770.983 113.285 773.445 110.823 773.445 107.785C773.445 104.748 770.983 102.285 767.945 102.285C764.908 102.285 762.445 104.748 762.445 107.785C762.445 110.823 764.908 113.285 767.945 113.285ZM767.945 113.785C771.259 113.785 773.945 111.099 773.945 107.785C773.945 104.471 771.259 101.785 767.945 101.785C764.632 101.785 761.945 104.471 761.945 107.785C761.945 111.099 764.632 113.785 767.945 113.785Z" fill="white"/>
<path d="M1071.66 775.435C1071.66 778.748 1068.98 781.435 1065.66 781.435C1062.35 781.435 1059.66 778.748 1059.66 775.435C1059.66 772.121 1062.35 769.435 1065.66 769.435C1068.98 769.435 1071.66 772.121 1071.66 775.435Z" fill="white"/>
<path fill-rule="evenodd" clip-rule="evenodd" d="M1065.66 780.935C1068.7 780.935 1071.16 778.472 1071.16 775.435C1071.16 772.397 1068.7 769.935 1065.66 769.935C1062.63 769.935 1060.16 772.397 1060.16 775.435C1060.16 778.472 1062.63 780.935 1065.66 780.935ZM1065.66 781.435C1068.98 781.435 1071.66 778.748 1071.66 775.435C1071.66 772.121 1068.98 769.435 1065.66 769.435C1062.35 769.435 1059.66 772.121 1059.66 775.435C1059.66 778.748 1062.35 781.435 1065.66 781.435Z" fill="white"/>
<path d="M1594.3 837.628C1594.3 840.942 1591.61 843.628 1588.3 843.628C1584.99 843.628 1582.3 840.942 1582.3 837.628C1582.3 834.315 1584.99 831.628 1588.3 831.628C1591.61 831.628 1594.3 834.315 1594.3 837.628Z" fill="white"/>
<path fill-rule="evenodd" clip-rule="evenodd" d="M1588.3 843.128C1591.34 843.128 1593.8 840.666 1593.8 837.628C1593.8 834.591 1591.34 832.128 1588.3 832.128C1585.26 832.128 1582.8 834.591 1582.8 837.628C1582.8 840.666 1585.26 843.128 1588.3 843.128ZM1588.3 843.628C1591.61 843.628 1594.3 840.942 1594.3 837.628C1594.3 834.315 1591.61 831.628 1588.3 831.628C1584.99 831.628 1582.3 834.315 1582.3 837.628C1582.3 840.942 1584.99 843.628 1588.3 843.628Z" fill="white"/>
<path d="M1671.33 481.271C1671.33 484.585 1668.65 487.271 1665.33 487.271C1662.02 487.271 1659.33 484.585 1659.33 481.271C1659.33 477.958 1662.02 475.271 1665.33 475.271C1668.65 475.271 1671.33 477.958 1671.33 481.271Z" fill="white"/>
<path fill-rule="evenodd" clip-rule="evenodd" d="M1665.33 486.771C1668.37 486.771 1670.83 484.309 1670.83 481.271C1670.83 478.234 1668.37 475.771 1665.33 475.771C1662.29 475.771 1659.83 478.234 1659.83 481.271C1659.83 484.309 1662.29 486.771 1665.33 486.771ZM1665.33 487.271C1668.65 487.271 1671.33 484.585 1671.33 481.271C1671.33 477.958 1668.65 475.271 1665.33 475.271C1662.02 475.271 1659.33 477.958 1659.33 481.271C1659.33 484.585 1662.02 487.271 1665.33 487.271Z" fill="white"/>
<path d="M1760.34 481.271C1760.34 484.585 1757.66 487.271 1754.34 487.271C1751.03 487.271 1748.34 484.585 1748.34 481.271C1748.34 477.958 1751.03 475.271 1754.34 475.271C1757.66 475.271 1760.34 477.958 1760.34 481.271Z" fill="white"/>
<path fill-rule="evenodd" clip-rule="evenodd" d="M1754.34 486.771C1757.38 486.771 1759.84 484.309 1759.84 481.271C1759.84 478.234 1757.38 475.771 1754.34 475.771C1751.3 475.771 1748.84 478.234 1748.84 481.271C1748.84 484.309 1751.3 486.771 1754.34 486.771ZM1754.34 487.271C1757.66 487.271 1760.34 484.585 1760.34 481.271C1760.34 477.958 1757.66 475.271 1754.34 475.271C1751.03 475.271 1748.34 477.958 1748.34 481.271C1748.34 484.585 1751.03 487.271 1754.34 487.271Z" fill="white"/>
<path d="M1760.77 69.9653C1760.77 73.279 1758.09 75.9653 1754.77 75.9653C1751.46 75.9653 1748.77 73.279 1748.77 69.9653C1748.77 66.6516 1751.46 63.9653 1754.77 63.9653C1758.09 63.9653 1760.77 66.6516 1760.77 69.9653Z" fill="white"/>
<path fill-rule="evenodd" clip-rule="evenodd" d="M1754.77 75.4653C1757.81 75.4653 1760.27 73.0029 1760.27 69.9653C1760.27 66.9278 1757.81 64.4653 1754.77 64.4653C1751.74 64.4653 1749.27 66.9278 1749.27 69.9653C1749.27 73.0029 1751.74 75.4653 1754.77 75.4653ZM1754.77 75.9653C1758.09 75.9653 1760.77 73.279 1760.77 69.9653C1760.77 66.6516 1758.09 63.9653 1754.77 63.9653C1751.46 63.9653 1748.77 66.6516 1748.77 69.9653C1748.77 73.279 1751.46 75.9653 1754.77 75.9653Z" fill="white"/>
<path d="M1360.06 197.519C1360.06 200.832 1357.37 203.519 1354.06 203.519C1350.74 203.519 1348.06 200.832 1348.06 197.519C1348.06 194.205 1350.74 191.519 1354.06 191.519C1357.37 191.519 1360.06 194.205 1360.06 197.519Z" fill="white"/>
<path fill-rule="evenodd" clip-rule="evenodd" d="M1354.06 203.019C1357.1 203.019 1359.56 200.556 1359.56 197.519C1359.56 194.481 1357.1 192.019 1354.06 192.019C1351.02 192.019 1348.56 194.481 1348.56 197.519C1348.56 200.556 1351.02 203.019 1354.06 203.019ZM1354.06 203.519C1357.37 203.519 1360.06 200.832 1360.06 197.519C1360.06 194.205 1357.37 191.519 1354.06 191.519C1350.74 191.519 1348.06 194.205 1348.06 197.519C1348.06 200.832 1350.74 203.519 1354.06 203.519Z" fill="white"/>
<path d="M1312.06 197.519C1312.06 200.832 1309.37 203.519 1306.06 203.519C1302.74 203.519 1300.06 200.832 1300.06 197.519C1300.06 194.205 1302.74 191.519 1306.06 191.519C1309.37 191.519 1312.06 194.205 1312.06 197.519Z" fill="white"/>
<path fill-rule="evenodd" clip-rule="evenodd" d="M1306.06 203.019C1309.1 203.019 1311.56 200.556 1311.56 197.519C1311.56 194.481 1309.1 192.019 1306.06 192.019C1303.02 192.019 1300.56 194.481 1300.56 197.519C1300.56 200.556 1303.02 203.019 1306.06 203.019ZM1306.06 203.519C1309.37 203.519 1312.06 200.832 1312.06 197.519C1312.06 194.205 1309.37 191.519 1306.06 191.519C1302.74 191.519 1300.06 194.205 1300.06 197.519C1300.06 200.832 1302.74 203.519 1306.06 203.519Z" fill="white"/>
<path d="M1264.06 197.519C1264.06 200.832 1261.37 203.519 1258.06 203.519C1254.74 203.519 1252.06 200.832 1252.06 197.519C1252.06 194.205 1254.74 191.519 1258.06 191.519C1261.37 191.519 1264.06 194.205 1264.06 197.519Z" fill="white"/>
<path fill-rule="evenodd" clip-rule="evenodd" d="M1258.06 203.019C1261.1 203.019 1263.56 200.556 1263.56 197.519C1263.56 194.481 1261.1 192.019 1258.06 192.019C1255.02 192.019 1252.56 194.481 1252.56 197.519C1252.56 200.556 1255.02 203.019 1258.06 203.019ZM1258.06 203.519C1261.37 203.519 1264.06 200.832 1264.06 197.519C1264.06 194.205 1261.37 191.519 1258.06 191.519C1254.74 191.519 1252.06 194.205 1252.06 197.519C1252.06 200.832 1254.74 203.519 1258.06 203.519Z" fill="white"/>
<path d="M1865.34 663.154C1865.34 666.468 1862.65 669.154 1859.34 669.154C1856.02 669.154 1853.34 666.468 1853.34 663.154C1853.34 659.841 1856.02 657.154 1859.34 657.154C1862.65 657.154 1865.34 659.841 1865.34 663.154Z" fill="white"/>
<path fill-rule="evenodd" clip-rule="evenodd" d="M1859.34 668.654C1862.37 668.654 1864.84 666.192 1864.84 663.154C1864.84 660.117 1862.37 657.654 1859.34 657.654C1856.3 657.654 1853.84 660.117 1853.84 663.154C1853.84 666.192 1856.3 668.654 1859.34 668.654ZM1859.34 669.154C1862.65 669.154 1865.34 666.468 1865.34 663.154C1865.34 659.841 1862.65 657.154 1859.34 657.154C1856.02 657.154 1853.34 659.841 1853.34 663.154C1853.34 666.468 1856.02 669.154 1859.34 669.154Z" fill="white"/>
<path d="M1865.34 885.852C1865.34 889.165 1862.65 891.852 1859.34 891.852C1856.02 891.852 1853.34 889.165 1853.34 885.852C1853.34 882.538 1856.02 879.852 1859.34 879.852C1862.65 879.852 1865.34 882.538 1865.34 885.852Z" fill="white"/>
<path fill-rule="evenodd" clip-rule="evenodd" d="M1859.34 891.352C1862.37 891.352 1864.84 888.889 1864.84 885.852C1864.84 882.814 1862.37 880.352 1859.34 880.352C1856.3 880.352 1853.84 882.814 1853.84 885.852C1853.84 888.889 1856.3 891.352 1859.34 891.352ZM1859.34 891.852C1862.65 891.852 1865.34 889.165 1865.34 885.852C1865.34 882.538 1862.65 879.852 1859.34 879.852C1856.02 879.852 1853.34 882.538 1853.34 885.852C1853.34 889.165 1856.02 891.852 1859.34 891.852Z" fill="white"/>
<path d="M1594.3 941.159C1594.3 944.473 1591.61 947.159 1588.3 947.159C1584.99 947.159 1582.3 944.473 1582.3 941.159C1582.3 937.845 1584.99 935.159 1588.3 935.159C1591.61 935.159 1594.3 937.845 1594.3 941.159Z" fill="white"/>
<path fill-rule="evenodd" clip-rule="evenodd" d="M1588.3 946.659C1591.34 946.659 1593.8 944.197 1593.8 941.159C1593.8 938.122 1591.34 935.659 1588.3 935.659C1585.26 935.659 1582.8 938.122 1582.8 941.159C1582.8 944.197 1585.26 946.659 1588.3 946.659ZM1588.3 947.159C1591.61 947.159 1594.3 944.473 1594.3 941.159C1594.3 937.845 1591.61 935.159 1588.3 935.159C1584.99 935.159 1582.3 937.845 1582.3 941.159C1582.3 944.473 1584.99 947.159 1588.3 947.159Z" fill="white"/>
<path d="M1648.8 941.159C1648.8 944.473 1646.11 947.159 1642.8 947.159C1639.49 947.159 1636.8 944.473 1636.8 941.159C1636.8 937.845 1639.49 935.159 1642.8 935.159C1646.11 935.159 1648.8 937.845 1648.8 941.159Z" fill="white"/>
<path fill-rule="evenodd" clip-rule="evenodd" d="M1642.8 946.659C1645.84 946.659 1648.3 944.197 1648.3 941.159C1648.3 938.122 1645.84 935.659 1642.8 935.659C1639.76 935.659 1637.3 938.122 1637.3 941.159C1637.3 944.197 1639.76 946.659 1642.8 946.659ZM1642.8 947.159C1646.11 947.159 1648.8 944.473 1648.8 941.159C1648.8 937.845 1646.11 935.159 1642.8 935.159C1639.49 935.159 1636.8 937.845 1636.8 941.159C1636.8 944.473 1639.49 947.159 1642.8 947.159Z" fill="white"/>
<path d="M275.398 638.804C275.398 642.118 272.712 644.804 269.398 644.804C266.085 644.804 263.398 642.118 263.398 638.804C263.398 635.49 266.085 632.804 269.398 632.804C272.712 632.804 275.398 635.49 275.398 638.804Z" fill="white"/>
<path fill-rule="evenodd" clip-rule="evenodd" d="M269.398 644.304C272.436 644.304 274.898 641.842 274.898 638.804C274.898 635.767 272.436 633.304 269.398 633.304C266.361 633.304 263.898 635.767 263.898 638.804C263.898 641.842 266.361 644.304 269.398 644.304ZM269.398 644.804C272.712 644.804 275.398 642.118 275.398 638.804C275.398 635.49 272.712 632.804 269.398 632.804C266.085 632.804 263.398 635.49 263.398 638.804C263.398 642.118 266.085 644.804 269.398 644.804Z" fill="white"/>
<path d="M275.398 687.74C275.398 691.054 272.712 693.74 269.398 693.74C266.085 693.74 263.398 691.054 263.398 687.74C263.398 684.427 266.085 681.74 269.398 681.74C272.712 681.74 275.398 684.427 275.398 687.74Z" fill="white"/>
<path fill-rule="evenodd" clip-rule="evenodd" d="M269.398 693.24C272.436 693.24 274.898 690.778 274.898 687.74C274.898 684.703 272.436 682.24 269.398 682.24C266.361 682.24 263.898 684.703 263.898 687.74C263.898 690.778 266.361 693.24 269.398 693.24ZM269.398 693.74C272.712 693.74 275.398 691.054 275.398 687.74C275.398 684.427 272.712 681.74 269.398 681.74C266.085 681.74 263.398 684.427 263.398 687.74C263.398 691.054 266.085 693.74 269.398 693.74Z" fill="white"/>
<path d="M63.5547 151.968C63.5547 155.281 60.8684 157.968 57.5547 157.968C54.241 157.968 51.5547 155.281 51.5547 151.968C51.5547 148.654 54.241 145.968 57.5547 145.968C60.8684 145.968 63.5547 148.654 63.5547 151.968Z" fill="white"/>
<path fill-rule="evenodd" clip-rule="evenodd" d="M57.5547 157.468C60.5923 157.468 63.0547 155.005 63.0547 151.968C63.0547 148.93 60.5923 146.468 57.5547 146.468C54.5171 146.468 52.0547 148.93 52.0547 151.968C52.0547 155.005 54.5171 157.468 57.5547 157.468ZM57.5547 157.968C60.8684 157.968 63.5547 155.281 63.5547 151.968C63.5547 148.654 60.8684 145.968 57.5547 145.968C54.241 145.968 51.5547 148.654 51.5547 151.968C51.5547 155.281 54.241 157.968 57.5547 157.968Z" fill="white"/>
<path d="M365.953 822.292C365.953 825.606 363.267 828.292 359.953 828.292C356.639 828.292 353.953 825.606 353.953 822.292C353.953 818.978 356.639 816.292 359.953 816.292C363.267 816.292 365.953 818.978 365.953 822.292Z" fill="white"/>
<path fill-rule="evenodd" clip-rule="evenodd" d="M359.953 827.792C362.991 827.792 365.453 825.33 365.453 822.292C365.453 819.254 362.991 816.792 359.953 816.792C356.916 816.792 354.453 819.254 354.453 822.292C354.453 825.33 356.916 827.792 359.953 827.792ZM359.953 828.292C363.267 828.292 365.953 825.606 365.953 822.292C365.953 818.978 363.267 816.292 359.953 816.292C356.639 816.292 353.953 818.978 353.953 822.292C353.953 825.606 356.639 828.292 359.953 828.292Z" fill="white"/>
<path fill-rule="evenodd" clip-rule="evenodd" d="M902.412 -25.6885V160.373L771.86 290.926L771.507 290.572L901.912 160.166V-25.6885H902.412Z" fill="white"/>
<path fill-rule="evenodd" clip-rule="evenodd" d="M1750.21 666.705L1750.56 667.059L1689.19 728.438L1689.19 885.112L1829.68 1025.6L1829.32 1025.95L1688.69 885.319L1688.69 728.231L1750.21 666.705Z" fill="white"/>
<path fill-rule="evenodd" clip-rule="evenodd" d="M1171.29 159.826V5.75049H1171.79V160.033L1138.03 193.789L1137.68 193.435L1171.29 159.826Z" fill="white"/>
<path fill-rule="evenodd" clip-rule="evenodd" d="M1670.26 226.281L1750.43 146.106L1750.79 146.46L1670.61 226.634L1670.26 226.281Z" fill="white"/>
<path fill-rule="evenodd" clip-rule="evenodd" d="M338.095 308.861H274.789V308.361H338.302L440.278 410.337V464.291H439.778V410.544L338.095 308.861Z" fill="white"/>
<path fill-rule="evenodd" clip-rule="evenodd" d="M1511.17 112.956L1642.62 -18.4971L1642.98 -18.1435L1511.52 113.31L1511.17 112.956Z" fill="white"/>
<path fill-rule="evenodd" clip-rule="evenodd" d="M1086.41 1012.31L1086.41 880.901H1086.91L1086.91 1012.31H1086.41Z" fill="white"/>
<path fill-rule="evenodd" clip-rule="evenodd" d="M1039.81 1012.31V880.76H1040.31V1012.31H1039.81Z" fill="white"/>
<path fill-rule="evenodd" clip-rule="evenodd" d="M274.789 875.373H515.727L577.639 937.284L577.285 937.637L515.52 875.873H274.789V875.373Z" fill="white"/>
<path fill-rule="evenodd" clip-rule="evenodd" d="M404.447 214.167H274.762V213.667H404.654L546.664 355.677L546.31 356.03L404.447 214.167Z" fill="white"/>
<path fill-rule="evenodd" clip-rule="evenodd" d="M61.4112 260.421L266.349 465.359L265.995 465.712L61.0576 260.775L61.4112 260.421Z" fill="white"/>
<path fill-rule="evenodd" clip-rule="evenodd" d="M464.132 -7.51168L464.485 -7.86523L713.371 241.021L831.397 122.995V-3.71228H831.897V123.202L713.371 241.728L464.132 -7.51168Z" fill="white"/>
<path fill-rule="evenodd" clip-rule="evenodd" d="M100.953 470.345H-61.5625V469.845H100.953V470.345Z" fill="white"/>
<path fill-rule="evenodd" clip-rule="evenodd" d="M52.2036 421.406H-51.293V420.906H52.2036V421.406Z" fill="white"/>
<path fill-rule="evenodd" clip-rule="evenodd" d="M215.915 683.806H-5.19141V683.306H215.915V683.806Z" fill="white"/>
<path fill-rule="evenodd" clip-rule="evenodd" d="M307.564 539.405H-13.8164V538.905H307.771L373.822 604.957L373.469 605.31L307.564 539.405Z" fill="white"/>
<path fill-rule="evenodd" clip-rule="evenodd" d="M1758.65 297.382L1933.39 122.639L1933.75 122.992L1759 297.736L1758.65 297.382Z" fill="white"/>
<path fill-rule="evenodd" clip-rule="evenodd" d="M237.908 940.909H487.827L615.706 1068.79L615.352 1069.14L487.62 941.409H238.115L161.505 1018.02L161.151 1017.67L237.908 940.909Z" fill="white"/>
<path d="M556.336 359.706C556.336 363.02 553.65 365.706 550.336 365.706C547.022 365.706 544.336 363.02 544.336 359.706C544.336 356.392 547.022 353.706 550.336 353.706C553.65 353.706 556.336 356.392 556.336 359.706Z" fill="white"/>
<path fill-rule="evenodd" clip-rule="evenodd" d="M550.336 365.206C553.374 365.206 555.836 362.744 555.836 359.706C555.836 356.668 553.374 354.206 550.336 354.206C547.298 354.206 544.836 356.668 544.836 359.706C544.836 362.744 547.298 365.206 550.336 365.206ZM550.336 365.706C553.65 365.706 556.336 363.02 556.336 359.706C556.336 356.392 553.65 353.706 550.336 353.706C547.022 353.706 544.336 356.392 544.336 359.706C544.336 363.02 547.022 365.706 550.336 365.706Z" fill="white"/>
<path d="M446.484 470.095C446.484 473.409 443.798 476.095 440.484 476.095C437.171 476.095 434.484 473.409 434.484 470.095C434.484 466.782 437.171 464.095 440.484 464.095C443.798 464.095 446.484 466.782 446.484 470.095Z" fill="white"/>
<path fill-rule="evenodd" clip-rule="evenodd" d="M440.484 475.595C443.522 475.595 445.984 473.133 445.984 470.095C445.984 467.058 443.522 464.595 440.484 464.595C437.447 464.595 434.984 467.058 434.984 470.095C434.984 473.133 437.447 475.595 440.484 475.595ZM440.484 476.095C443.798 476.095 446.484 473.409 446.484 470.095C446.484 466.782 443.798 464.095 440.484 464.095C437.171 464.095 434.484 466.782 434.484 470.095C434.484 473.409 437.171 476.095 440.484 476.095Z" fill="white"/>
<path d="M587.699 941.159C587.699 944.473 585.013 947.159 581.699 947.159C578.386 947.159 575.699 944.473 575.699 941.159C575.699 937.845 578.386 935.159 581.699 935.159C585.013 935.159 587.699 937.845 587.699 941.159Z" fill="white"/>
<path fill-rule="evenodd" clip-rule="evenodd" d="M581.699 946.659C584.737 946.659 587.199 944.197 587.199 941.159C587.199 938.122 584.737 935.659 581.699 935.659C578.662 935.659 576.199 938.122 576.199 941.159C576.199 944.197 578.662 946.659 581.699 946.659ZM581.699 947.159C585.013 947.159 587.699 944.473 587.699 941.159C587.699 937.845 585.013 935.159 581.699 935.159C578.386 935.159 575.699 937.845 575.699 941.159C575.699 944.473 578.386 947.159 581.699 947.159Z" fill="white"/>
<path d="M275.398 470.095C275.398 473.409 272.712 476.095 269.398 476.095C266.085 476.095 263.398 473.409 263.398 470.095C263.398 466.782 266.085 464.095 269.398 464.095C272.712 464.095 275.398 466.782 275.398 470.095Z" fill="white"/>
<path fill-rule="evenodd" clip-rule="evenodd" d="M269.398 475.595C272.436 475.595 274.898 473.133 274.898 470.095C274.898 467.058 272.436 464.595 269.398 464.595C266.361 464.595 263.898 467.058 263.898 470.095C263.898 473.133 266.361 475.595 269.398 475.595ZM269.398 476.095C272.712 476.095 275.398 473.409 275.398 470.095C275.398 466.782 272.712 464.095 269.398 464.095C266.085 464.095 263.398 466.782 263.398 470.095C263.398 473.409 266.085 476.095 269.398 476.095Z" fill="white"/>
<path d="M383.28 608.122C383.28 611.435 380.594 614.122 377.28 614.122C373.967 614.122 371.28 611.435 371.28 608.122C371.28 604.808 373.967 602.122 377.28 602.122C380.594 602.122 383.28 604.808 383.28 608.122Z" fill="white"/>
<path fill-rule="evenodd" clip-rule="evenodd" d="M377.28 613.622C380.318 613.622 382.78 611.159 382.78 608.122C382.78 605.084 380.318 602.622 377.28 602.622C374.243 602.622 371.78 605.084 371.78 608.122C371.78 611.159 374.243 613.622 377.28 613.622ZM377.28 614.122C380.594 614.122 383.28 611.435 383.28 608.122C383.28 604.808 380.594 602.122 377.28 602.122C373.967 602.122 371.28 604.808 371.28 608.122C371.28 611.435 373.967 614.122 377.28 614.122Z" fill="white"/>
<path d="M226.084 683.556C226.084 686.87 223.398 689.556 220.084 689.556C216.77 689.556 214.084 686.87 214.084 683.556C214.084 680.242 216.77 677.556 220.084 677.556C223.398 677.556 226.084 680.242 226.084 683.556Z" fill="white"/>
<path fill-rule="evenodd" clip-rule="evenodd" d="M220.084 689.056C223.122 689.056 225.584 686.594 225.584 683.556C225.584 680.519 223.122 678.056 220.084 678.056C217.046 678.056 214.584 680.519 214.584 683.556C214.584 686.594 217.046 689.056 220.084 689.056ZM220.084 689.556C223.398 689.556 226.084 686.87 226.084 683.556C226.084 680.242 223.398 677.556 220.084 677.556C216.77 677.556 214.084 680.242 214.084 683.556C214.084 686.87 216.77 689.556 220.084 689.556Z" fill="white"/>
<path d="M275.398 875.485C275.398 878.799 272.712 881.485 269.398 881.485C266.085 881.485 263.398 878.799 263.398 875.485C263.398 872.171 266.085 869.485 269.398 869.485C272.712 869.485 275.398 872.171 275.398 875.485Z" fill="white"/>
<path fill-rule="evenodd" clip-rule="evenodd" d="M269.398 880.985C272.436 880.985 274.898 878.522 274.898 875.485C274.898 872.447 272.436 869.985 269.398 869.985C266.361 869.985 263.898 872.447 263.898 875.485C263.898 878.522 266.361 880.985 269.398 880.985ZM269.398 881.485C272.712 881.485 275.398 878.799 275.398 875.485C275.398 872.171 272.712 869.485 269.398 869.485C266.085 869.485 263.398 872.171 263.398 875.485C263.398 878.799 266.085 881.485 269.398 881.485Z" fill="white"/>
<path d="M773.945 294.485C773.945 297.799 771.259 300.485 767.945 300.485C764.632 300.485 761.945 297.799 761.945 294.485C761.945 291.171 764.632 288.485 767.945 288.485C771.259 288.485 773.945 291.171 773.945 294.485Z" fill="white"/>
<path fill-rule="evenodd" clip-rule="evenodd" d="M767.945 299.985C770.983 299.985 773.445 297.522 773.445 294.485C773.445 291.447 770.983 288.985 767.945 288.985C764.908 288.985 762.445 291.447 762.445 294.485C762.445 297.522 764.908 299.985 767.945 299.985ZM767.945 300.485C771.259 300.485 773.945 297.799 773.945 294.485C773.945 291.171 771.259 288.485 767.945 288.485C764.632 288.485 761.945 291.171 761.945 294.485C761.945 297.799 764.632 300.485 767.945 300.485Z" fill="white"/>
<path d="M1092.66 875.485C1092.66 878.799 1089.98 881.485 1086.66 881.485C1083.35 881.485 1080.66 878.799 1080.66 875.485C1080.66 872.171 1083.35 869.485 1086.66 869.485C1089.98 869.485 1092.66 872.171 1092.66 875.485Z" fill="white"/>
<path fill-rule="evenodd" clip-rule="evenodd" d="M1086.66 880.985C1089.7 880.985 1092.16 878.522 1092.16 875.485C1092.16 872.447 1089.7 869.985 1086.66 869.985C1083.63 869.985 1081.16 872.447 1081.16 875.485C1081.16 878.522 1083.63 880.985 1086.66 880.985ZM1086.66 881.485C1089.98 881.485 1092.66 878.799 1092.66 875.485C1092.66 872.171 1089.98 869.485 1086.66 869.485C1083.35 869.485 1080.66 872.171 1080.66 875.485C1080.66 878.799 1083.35 881.485 1086.66 881.485Z" fill="white"/>
<path d="M1760.77 301.613C1760.77 304.927 1758.09 307.613 1754.77 307.613C1751.46 307.613 1748.77 304.927 1748.77 301.613C1748.77 298.299 1751.46 295.613 1754.77 295.613C1758.09 295.613 1760.77 298.299 1760.77 301.613Z" fill="white"/>
<path fill-rule="evenodd" clip-rule="evenodd" d="M1754.77 307.113C1757.81 307.113 1760.27 304.65 1760.27 301.613C1760.27 298.575 1757.81 296.113 1754.77 296.113C1751.74 296.113 1749.27 298.575 1749.27 301.613C1749.27 304.65 1751.74 307.113 1754.77 307.113ZM1754.77 307.613C1758.09 307.613 1760.77 304.927 1760.77 301.613C1760.77 298.299 1758.09 295.613 1754.77 295.613C1751.46 295.613 1748.77 298.299 1748.77 301.613C1748.77 304.927 1751.46 307.613 1754.77 307.613Z" fill="white"/>
<path d="M1760.34 142.645C1760.34 145.958 1757.66 148.645 1754.34 148.645C1751.03 148.645 1748.34 145.958 1748.34 142.645C1748.34 139.331 1751.03 136.645 1754.34 136.645C1757.66 136.645 1760.34 139.331 1760.34 142.645Z" fill="white"/>
<path fill-rule="evenodd" clip-rule="evenodd" d="M1754.34 148.145C1757.38 148.145 1759.84 145.682 1759.84 142.645C1759.84 139.607 1757.38 137.145 1754.34 137.145C1751.3 137.145 1748.84 139.607 1748.84 142.645C1748.84 145.682 1751.3 148.145 1754.34 148.145ZM1754.34 148.645C1757.66 148.645 1760.34 145.958 1760.34 142.645C1760.34 139.331 1757.66 136.645 1754.34 136.645C1751.03 136.645 1748.34 139.331 1748.34 142.645C1748.34 145.958 1751.03 148.645 1754.34 148.645Z" fill="white"/>
<path d="M1672.45 230.367C1672.45 233.681 1669.76 236.367 1666.45 236.367C1663.14 236.367 1660.45 233.681 1660.45 230.367C1660.45 227.053 1663.14 224.367 1666.45 224.367C1669.76 224.367 1672.45 227.053 1672.45 230.367Z" fill="white"/>
<path fill-rule="evenodd" clip-rule="evenodd" d="M1666.45 235.867C1669.49 235.867 1671.95 233.405 1671.95 230.367C1671.95 227.33 1669.49 224.867 1666.45 224.867C1663.41 224.867 1660.95 227.33 1660.95 230.367C1660.95 233.405 1663.41 235.867 1666.45 235.867ZM1666.45 236.367C1669.76 236.367 1672.45 233.681 1672.45 230.367C1672.45 227.053 1669.76 224.367 1666.45 224.367C1663.14 224.367 1660.45 227.053 1660.45 230.367C1660.45 233.681 1663.14 236.367 1666.45 236.367Z" fill="white"/>
<path d="M1512.84 116.815C1512.84 120.129 1510.15 122.815 1506.84 122.815C1503.53 122.815 1500.84 120.129 1500.84 116.815C1500.84 113.502 1503.53 110.815 1506.84 110.815C1510.15 110.815 1512.84 113.502 1512.84 116.815Z" fill="white"/>
<path fill-rule="evenodd" clip-rule="evenodd" d="M1506.84 122.315C1509.88 122.315 1512.34 119.853 1512.34 116.815C1512.34 113.778 1509.88 111.315 1506.84 111.315C1503.8 111.315 1501.34 113.778 1501.34 116.815C1501.34 119.853 1503.8 122.315 1506.84 122.315ZM1506.84 122.815C1510.15 122.815 1512.84 120.129 1512.84 116.815C1512.84 113.502 1510.15 110.815 1506.84 110.815C1503.53 110.815 1500.84 113.502 1500.84 116.815C1500.84 120.129 1503.53 122.815 1506.84 122.815Z" fill="white"/>
<path d="M1139.95 197.519C1139.95 200.832 1137.26 203.519 1133.95 203.519C1130.64 203.519 1127.95 200.832 1127.95 197.519C1127.95 194.205 1130.64 191.519 1133.95 191.519C1137.26 191.519 1139.95 194.205 1139.95 197.519Z" fill="white"/>
<path fill-rule="evenodd" clip-rule="evenodd" d="M1133.95 203.019C1136.99 203.019 1139.45 200.556 1139.45 197.519C1139.45 194.481 1136.99 192.019 1133.95 192.019C1130.91 192.019 1128.45 194.481 1128.45 197.519C1128.45 200.556 1130.91 203.019 1133.95 203.019ZM1133.95 203.519C1137.26 203.519 1139.95 200.832 1139.95 197.519C1139.95 194.205 1137.26 191.519 1133.95 191.519C1130.64 191.519 1127.95 194.205 1127.95 197.519C1127.95 200.832 1130.64 203.519 1133.95 203.519Z" fill="white"/>
<path d="M1760.34 663.154C1760.34 666.468 1757.66 669.154 1754.34 669.154C1751.03 669.154 1748.34 666.468 1748.34 663.154C1748.34 659.841 1751.03 657.154 1754.34 657.154C1757.66 657.154 1760.34 659.841 1760.34 663.154Z" fill="white"/>
<path fill-rule="evenodd" clip-rule="evenodd" d="M1754.34 668.654C1757.38 668.654 1759.84 666.192 1759.84 663.154C1759.84 660.117 1757.38 657.654 1754.34 657.654C1751.3 657.654 1748.84 660.117 1748.84 663.154C1748.84 666.192 1751.3 668.654 1754.34 668.654ZM1754.34 669.154C1757.66 669.154 1760.34 666.468 1760.34 663.154C1760.34 659.841 1757.66 657.154 1754.34 657.154C1751.03 657.154 1748.34 659.841 1748.34 663.154C1748.34 666.468 1751.03 669.154 1754.34 669.154Z" fill="white"/>
<path d="M1046.06 875.485C1046.06 878.799 1043.37 881.485 1040.06 881.485C1036.74 881.485 1034.06 878.799 1034.06 875.485C1034.06 872.171 1036.74 869.485 1040.06 869.485C1043.37 869.485 1046.06 872.171 1046.06 875.485Z" fill="white"/>
<path fill-rule="evenodd" clip-rule="evenodd" d="M1040.06 880.985C1043.1 880.985 1045.56 878.522 1045.56 875.485C1045.56 872.447 1043.1 869.985 1040.06 869.985C1037.02 869.985 1034.56 872.447 1034.56 875.485C1034.56 878.522 1037.02 880.985 1040.06 880.985ZM1040.06 881.485C1043.37 881.485 1046.06 878.799 1046.06 875.485C1046.06 872.171 1043.37 869.485 1040.06 869.485C1036.74 869.485 1034.06 872.171 1034.06 875.485C1034.06 878.799 1036.74 881.485 1040.06 881.485Z" fill="white"/>
<path d="M112.469 470.095C112.469 473.409 109.782 476.095 106.469 476.095C103.155 476.095 100.469 473.409 100.469 470.095C100.469 466.782 103.155 464.095 106.469 464.095C109.782 464.095 112.469 466.782 112.469 470.095Z" fill="white"/>
<path fill-rule="evenodd" clip-rule="evenodd" d="M106.469 475.595C109.506 475.595 111.969 473.133 111.969 470.095C111.969 467.058 109.506 464.595 106.469 464.595C103.431 464.595 100.969 467.058 100.969 470.095C100.969 473.133 103.431 475.595 106.469 475.595ZM106.469 476.095C109.782 476.095 112.469 473.409 112.469 470.095C112.469 466.782 109.782 464.095 106.469 464.095C103.155 464.095 100.469 466.782 100.469 470.095C100.469 473.409 103.155 476.095 106.469 476.095Z" fill="white"/>
<path d="M63.5547 256.921C63.5547 260.235 60.8684 262.921 57.5547 262.921C54.241 262.921 51.5547 260.235 51.5547 256.921C51.5547 253.608 54.241 250.921 57.5547 250.921C60.8684 250.921 63.5547 253.608 63.5547 256.921Z" fill="white"/>
<path fill-rule="evenodd" clip-rule="evenodd" d="M57.5547 262.421C60.5923 262.421 63.0547 259.959 63.0547 256.921C63.0547 253.884 60.5923 251.421 57.5547 251.421C54.5171 251.421 52.0547 253.884 52.0547 256.921C52.0547 259.959 54.5171 262.421 57.5547 262.421ZM57.5547 262.921C60.8684 262.921 63.5547 260.235 63.5547 256.921C63.5547 253.608 60.8684 250.921 57.5547 250.921C54.241 250.921 51.5547 253.608 51.5547 256.921C51.5547 260.235 54.241 262.921 57.5547 262.921Z" fill="white"/>
<path d="M63.5547 421.156C63.5547 424.47 60.8684 427.156 57.5547 427.156C54.241 427.156 51.5547 424.47 51.5547 421.156C51.5547 417.843 54.241 415.156 57.5547 415.156C60.8684 415.156 63.5547 417.843 63.5547 421.156Z" fill="white"/>
<path fill-rule="evenodd" clip-rule="evenodd" d="M57.5547 426.656C60.5923 426.656 63.0547 424.194 63.0547 421.156C63.0547 418.119 60.5923 415.656 57.5547 415.656C54.5171 415.656 52.0547 418.119 52.0547 421.156C52.0547 424.194 54.5171 426.656 57.5547 426.656ZM57.5547 427.156C60.8684 427.156 63.5547 424.47 63.5547 421.156C63.5547 417.843 60.8684 415.156 57.5547 415.156C54.241 415.156 51.5547 417.843 51.5547 421.156C51.5547 424.47 54.241 427.156 57.5547 427.156Z" fill="white"/>
<path d="M275.398 308.611C275.398 311.925 272.712 314.611 269.398 314.611C266.085 314.611 263.398 311.925 263.398 308.611C263.398 305.298 266.085 302.611 269.398 302.611C272.712 302.611 275.398 305.298 275.398 308.611Z" fill="white"/>
<path fill-rule="evenodd" clip-rule="evenodd" d="M269.398 314.111C272.436 314.111 274.898 311.649 274.898 308.611C274.898 305.574 272.436 303.111 269.398 303.111C266.361 303.111 263.898 305.574 263.898 308.611C263.898 311.649 266.361 314.111 269.398 314.111ZM269.398 314.611C272.712 314.611 275.398 311.925 275.398 308.611C275.398 305.298 272.712 302.611 269.398 302.611C266.085 302.611 263.398 305.298 263.398 308.611C263.398 311.925 266.085 314.611 269.398 314.611Z" fill="white"/>
<path d="M275.398 213.917C275.398 217.231 272.712 219.917 269.398 219.917C266.085 219.917 263.398 217.231 263.398 213.917C263.398 210.603 266.085 207.917 269.398 207.917C272.712 207.917 275.398 210.603 275.398 213.917Z" fill="white"/>
<path fill-rule="evenodd" clip-rule="evenodd" d="M269.398 219.417C272.436 219.417 274.898 216.955 274.898 213.917C274.898 210.879 272.436 208.417 269.398 208.417C266.361 208.417 263.898 210.879 263.898 213.917C263.898 216.955 266.361 219.417 269.398 219.417ZM269.398 219.917C272.712 219.917 275.398 217.231 275.398 213.917C275.398 210.603 272.712 207.917 269.398 207.917C266.085 207.917 263.398 210.603 263.398 213.917C263.398 217.231 266.085 219.917 269.398 219.917Z" fill="white"/>
<path fill-rule="evenodd" clip-rule="evenodd" d="M1642.5 611.707L1424.15 393.854L1424.5 393.5L1643 611.5V886.276H1431.73L1293.76 1024.25L1293.4 1023.89L1431.52 885.776H1642.5V611.707Z" fill="white"/>
<path fill-rule="evenodd" clip-rule="evenodd" d="M1458 651L1458.35 651.354L1165.5 944.208V1012.45H1165V944L1458 651Z" fill="white"/>
<path fill-rule="evenodd" clip-rule="evenodd" d="M1025.8 709.138H1303.5V709.638H1026.01L856.203 879.44V1062.76H855.703V879.233L1025.8 709.138Z" fill="white"/>
<path fill-rule="evenodd" clip-rule="evenodd" d="M1125.63 137.851V0.0986328H1126.13V138.058L1041.2 222.988V319.403H1154.5V319.903H1040.7V222.781L1125.63 137.851Z" fill="white"/>
<path fill-rule="evenodd" clip-rule="evenodd" d="M1955.17 195.186L1771.92 359.25H1157V358.75H1771.73L1954.83 194.814L1955.17 195.186Z" fill="white"/>
<path fill-rule="evenodd" clip-rule="evenodd" d="M790.008 657.127H1303.5V657.627H790.215L713.599 734.243H345.247L54.1768 1025.32L53.8232 1024.96L345.04 733.743H713.392L790.008 657.127Z" fill="white"/>
<path fill-rule="evenodd" clip-rule="evenodd" d="M133.828 -37.819L134.172 -38.181L286.604 107.087L492.819 107.088L757.951 359.75H1157V360.25H757.75L492.619 107.588L286.404 107.587L133.828 -37.819Z" fill="white"/>
<path fill-rule="evenodd" clip-rule="evenodd" d="M749 474.75H1302V475.25H749V474.75Z" fill="white"/>
<path d="M755.931 474.68C755.931 477.993 753.244 480.68 749.931 480.68C746.617 480.68 743.931 477.993 743.931 474.68C743.931 471.366 746.617 468.68 749.931 468.68C753.244 468.68 755.931 471.366 755.931 474.68Z" fill="white"/>
<path fill-rule="evenodd" clip-rule="evenodd" d="M749.931 480.18C752.968 480.18 755.431 477.717 755.431 474.68C755.431 471.642 752.968 469.18 749.931 469.18C746.893 469.18 744.431 471.642 744.431 474.68C744.431 477.717 746.893 480.18 749.931 480.18ZM749.931 480.68C753.244 480.68 755.931 477.993 755.931 474.68C755.931 471.366 753.244 468.68 749.931 468.68C746.617 468.68 743.931 471.366 743.931 474.68C743.931 477.993 746.617 480.68 749.931 480.68Z" fill="white"/>
<path d="M755.932 511.382C755.932 514.696 753.245 517.382 749.932 517.382C746.618 517.382 743.932 514.696 743.932 511.382C743.932 508.068 746.618 505.382 749.932 505.382C753.245 505.382 755.932 508.068 755.932 511.382Z" fill="white"/>
<path fill-rule="evenodd" clip-rule="evenodd" d="M749.932 516.882C752.969 516.882 755.432 514.419 755.432 511.382C755.432 508.344 752.969 505.882 749.932 505.882C746.894 505.882 744.432 508.344 744.432 511.382C744.432 514.419 746.894 516.882 749.932 516.882ZM749.932 517.382C753.245 517.382 755.932 514.696 755.932 511.382C755.932 508.068 753.245 505.382 749.932 505.382C746.618 505.382 743.932 508.068 743.932 511.382C743.932 514.696 746.618 517.382 749.932 517.382Z" fill="white"/>
<path fill-rule="evenodd" clip-rule="evenodd" d="M749 511.75H1302V512.25H749V511.75Z" fill="white"/>
<path fill-rule="evenodd" clip-rule="evenodd" d="M749 548.75H1302V549.25H749V548.75Z" fill="white"/>
<path d="M755.932 547.885C755.932 551.198 753.245 553.885 749.932 553.885C746.618 553.885 743.932 551.198 743.932 547.885C743.932 544.571 746.618 541.885 749.932 541.885C753.245 541.885 755.932 544.571 755.932 547.885Z" fill="white"/>
<path fill-rule="evenodd" clip-rule="evenodd" d="M749.932 553.385C752.969 553.385 755.432 550.922 755.432 547.885C755.432 544.847 752.969 542.385 749.932 542.385C746.894 542.385 744.432 544.847 744.432 547.885C744.432 550.922 746.894 553.385 749.932 553.385ZM749.932 553.885C753.245 553.885 755.932 551.198 755.932 547.885C755.932 544.571 753.245 541.885 749.932 541.885C746.618 541.885 743.932 544.571 743.932 547.885C743.932 551.198 746.618 553.885 749.932 553.885Z" fill="white"/>
<path fill-rule="evenodd" clip-rule="evenodd" d="M1833.99 138.533V-21.6562H1834.49V138.74L1698.91 274.311H1312.06V273.811H1698.71L1833.99 138.533Z" fill="white"/>
</g>
</g>
<defs>
<filter id="filter0_ddddii_1404_2209" x="-126" y="-51" width="2106.54" height="1132.85" filterUnits="userSpaceOnUse" color-interpolation-filters="sRGB">
<feFlood flood-opacity="0" result="BackgroundImageFix"/>
<feColorMatrix in="SourceAlpha" type="matrix" values="0 0 0 0 0 0 0 0 0 0 0 0 0 0 0 0 0 0 127 0" result="hardAlpha"/>
<feOffset dx="1" dy="1"/>
<feGaussianBlur stdDeviation="1.5"/>
<feColorMatrix type="matrix" values="0 0 0 0 0.619608 0 0 0 0 0.619608 0 0 0 0 0.619608 0 0 0 0.9 0"/>
<feBlend mode="normal" in2="BackgroundImageFix" result="effect1_dropShadow_1404_2209"/>
<feColorMatrix in="SourceAlpha" type="matrix" values="0 0 0 0 0 0 0 0 0 0 0 0 0 0 0 0 0 0 127 0" result="hardAlpha"/>
<feOffset dx="-1" dy="-1"/>
<feGaussianBlur stdDeviation="1"/>
<feColorMatrix type="matrix" values="0 0 0 0 1 0 0 0 0 1 0 0 0 0 1 0 0 0 0.9 0"/>
<feBlend mode="normal" in2="effect1_dropShadow_1404_2209" result="effect2_dropShadow_1404_2209"/>
<feColorMatrix in="SourceAlpha" type="matrix" values="0 0 0 0 0 0 0 0 0 0 0 0 0 0 0 0 0 0 127 0" result="hardAlpha"/>
<feOffset dx="1" dy="-1"/>
<feGaussianBlur stdDeviation="1"/>
<feColorMatrix type="matrix" values="0 0 0 0 0.619608 0 0 0 0 0.619608 0 0 0 0 0.619608 0 0 0 0.2 0"/>
<feBlend mode="normal" in2="effect2_dropShadow_1404_2209" result="effect3_dropShadow_1404_2209"/>
<feColorMatrix in="SourceAlpha" type="matrix" values="0 0 0 0 0 0 0 0 0 0 0 0 0 0 0 0 0 0 127 0" result="hardAlpha"/>
<feOffset dx="-1" dy="1"/>
<feGaussianBlur stdDeviation="1"/>
<feColorMatrix type="matrix" values="0 0 0 0 0.619608 0 0 0 0 0.619608 0 0 0 0 0.619608 0 0 0 0.2 0"/>
<feBlend mode="normal" in2="effect3_dropShadow_1404_2209" result="effect4_dropShadow_1404_2209"/>
<feBlend mode="normal" in="SourceGraphic" in2="effect4_dropShadow_1404_2209" result="shape"/>
<feColorMatrix in="SourceAlpha" type="matrix" values="0 0 0 0 0 0 0 0 0 0 0 0 0 0 0 0 0 0 127 0" result="hardAlpha"/>
<feOffset dx="-1" dy="-1"/>
<feGaussianBlur stdDeviation="1"/>
<feComposite in2="hardAlpha" operator="arithmetic" k2="-1" k3="1"/>
<feColorMatrix type="matrix" values="0 0 0 0 0.619608 0 0 0 0 0.619608 0 0 0 0 0.619608 0 0 0 0.5 0"/>
<feBlend mode="normal" in2="shape" result="effect5_innerShadow_1404_2209"/>
<feColorMatrix in="SourceAlpha" type="matrix" values="0 0 0 0 0 0 0 0 0 0 0 0 0 0 0 0 0 0 127 0" result="hardAlpha"/>
<feOffset dx="1" dy="1"/>
<feGaussianBlur stdDeviation="1"/>
<feComposite in2="hardAlpha" operator="arithmetic" k2="-1" k3="1"/>
<feColorMatrix type="matrix" values="0 0 0 0 1 0 0 0 0 1 0 0 0 0 1 0 0 0 0.3 0"/>
<feBlend mode="normal" in2="effect5_innerShadow_1404_2209" result="effect6_innerShadow_1404_2209"/>
</filter>
<clipPath id="clip0_1404_2209">
<rect width="1920" height="1006" fill="white"/>
</clipPath>
</defs>
</svg>
